<?xml version="1.0" encoding="UTF-8"?>
<svg id="_Слой_2" data-name="Слой 2" xmlns="http://www.w3.org/2000/svg" viewBox="0 0 214.14 274.27">
  <defs>
    <style>
      .cls-1 {
        fill: #fff;
        stroke-width: 0px;
      }
    </style>
  </defs>
  <g id="Layer_1" data-name="Layer 1">
    <polygon class="cls-1" points="214.14 203.31 205.07 197.43 209.07 194.79 207.06 190.98 201.15 194.89 195.31 191.11 206.24 183.87 204.24 180.06 191.38 188.57 184.69 184.23 205.86 170.21 203.86 166.4 180.77 181.69 171.3 175.56 204.65 153.47 202.65 149.66 167.38 173.02 121.04 143 125.37 139.39 146.56 139.4 157.49 161.91 160.34 160.17 150.26 139.4 156.4 139.4 162.6 152.26 165.45 150.54 160.09 139.4 165.36 139.4 168.37 145.65 171.22 143.92 169.05 139.4 177.48 139.4 177.72 139.38 177.72 137.4 177.72 136.87 177.72 134.87 169.05 134.87 171.22 130.34 168.37 128.62 165.36 134.87 160.09 134.87 165.45 123.73 162.59 122 156.4 134.87 150.26 134.87 160.34 114.1 157.49 112.36 146.56 134.87 125.36 134.87 121.04 131.27 167.38 101.25 202.65 124.6 204.65 120.79 171.3 98.71 180.77 92.57 203.86 107.87 205.86 104.06 184.69 90.04 191.38 85.7 204.24 94.21 206.24 90.4 195.3 83.16 201.15 79.37 207.06 83.29 209.06 79.48 205.07 76.83 214.13 70.96 213.02 68.8 213.02 68.8 211.67 66.17 202.6 72.05 202.56 66.84 198.62 66.88 198.68 74.58 192.84 78.37 192.72 64.12 188.78 64.16 188.92 80.91 182.23 85.25 181.99 57.66 178.05 57.7 178.31 87.79 168.84 93.92 168.47 50.46 164.53 50.51 164.92 96.46 118.58 126.48 117.96 120.48 128.56 99.88 151.4 100.52 151.48 96.88 130.41 96.29 133.48 90.32 146.51 90.74 146.6 87.1 135.33 86.74 137.96 81.61 144.29 81.81 144.38 78.18 139.81 78.03 144.14 69.6 142.19 68.33 142.19 68.34 140.65 67.33 136.31 75.77 133.91 71.39 131.15 73.3 134.47 79.35 131.83 84.48 125.91 73.7 123.15 75.6 129.99 88.06 126.91 94.03 115.92 73.85 113.16 75.74 125.07 97.62 114.47 118.22 109.53 120.62 109.53 60.58 145.19 37.98 143.25 34.13 109.53 55.5 109.53 43.23 132.88 28.44 130.94 24.59 109.53 38.15 109.53 29.48 122.52 21.24 120.59 17.39 109.53 24.4 109.53 16.83 115.51 13.04 113.57 9.19 109.53 11.75 109.53 0 107.31 0 106.82 0 104.6 0 104.6 11.75 100.56 9.19 98.62 13.04 104.6 16.83 104.6 24.4 93.55 17.39 91.61 21.24 104.6 29.48 104.6 38.15 83.19 24.59 81.26 28.44 104.6 43.23 104.6 55.5 70.88 34.13 68.94 37.98 104.6 60.58 104.6 120.62 99.66 118.22 89.07 97.62 100.98 75.74 98.21 73.85 87.22 94.03 84.15 88.06 90.98 75.6 88.22 73.7 82.31 84.48 79.67 79.35 82.99 73.3 80.23 71.39 77.83 75.77 73.49 67.33 71.53 68.6 71.53 68.6 69.99 69.61 74.33 78.04 69.75 78.18 69.84 81.81 76.17 81.61 78.81 86.74 67.53 87.1 67.62 90.74 80.65 90.32 83.73 96.29 62.65 96.88 62.73 100.52 85.57 99.88 96.17 120.48 95.55 126.48 49.21 96.46 49.6 50.51 45.66 50.46 45.29 93.92 35.83 87.79 36.08 57.7 32.14 57.66 31.91 85.25 25.21 80.91 25.35 64.17 21.41 64.12 21.29 78.37 15.45 74.59 15.52 66.88 11.58 66.84 11.53 72.05 2.46 66.18 1.35 68.33 1.35 68.33 0 70.96 9.07 76.84 5.07 79.48 7.07 83.29 12.99 79.37 18.83 83.16 7.89 90.4 9.9 94.21 22.75 85.7 29.45 90.04 8.27 104.06 10.27 107.87 33.36 92.57 42.83 98.71 9.48 120.8 11.48 124.6 46.75 101.25 93.09 131.27 88.77 134.87 67.57 134.87 56.64 112.36 53.8 114.1 63.88 134.87 57.73 134.87 51.54 122 48.69 123.73 54.05 134.87 48.77 134.87 45.76 128.62 42.91 130.35 45.09 134.87 36.41 134.87 36.41 136.87 36.41 136.87 36.41 137.13 36.41 137.4 36.41 137.4 36.41 139.4 45.09 139.4 42.91 143.92 45.76 145.65 48.77 139.4 54.05 139.4 48.69 150.54 51.54 152.26 57.73 139.4 63.88 139.4 53.8 160.17 56.64 161.91 67.57 139.4 88.77 139.39 93.09 143 46.75 173.02 11.48 149.66 9.48 153.47 42.83 175.56 33.37 181.69 10.27 166.4 8.27 170.21 29.45 184.23 22.75 188.57 9.9 180.06 7.89 183.87 18.83 191.11 12.99 194.89 7.07 190.98 5.07 194.79 9.07 197.43 0 203.31 1.11 205.46 1.11 205.46 2.46 208.1 11.53 202.22 11.58 207.43 15.52 207.39 15.45 199.68 21.29 195.9 21.41 210.15 25.35 210.1 25.21 193.36 31.91 189.02 32.14 216.61 36.08 216.56 35.83 186.48 45.29 180.35 45.66 223.8 49.6 223.76 49.21 177.81 95.55 147.78 96.17 153.79 85.57 174.39 62.73 173.75 62.65 177.38 83.73 177.97 80.65 183.95 67.62 183.53 67.53 187.17 78.81 187.53 76.17 192.65 69.84 192.45 69.75 196.09 74.33 196.23 69.99 204.66 71.95 205.93 71.95 205.93 73.49 206.93 77.83 198.5 80.23 202.87 82.99 200.97 79.67 194.92 82.31 189.79 88.22 200.57 90.98 198.66 84.15 186.21 87.22 180.24 98.21 200.42 100.98 198.52 89.07 176.65 99.66 156.05 104.6 153.65 104.61 213.69 69.16 236.15 68.94 236.29 70.88 240.14 104.61 218.77 104.61 231.04 81.26 245.83 83.19 249.68 104.61 236.11 104.61 244.79 91.61 253.03 93.55 256.88 104.61 249.87 104.61 257.44 98.62 261.23 100.56 265.08 104.61 262.52 104.61 274.27 106.82 274.27 107.31 274.27 109.53 274.27 109.53 262.52 113.57 265.08 115.51 261.23 109.53 257.44 109.53 249.87 120.59 256.88 122.53 253.03 109.53 244.79 109.53 236.11 130.94 249.68 132.88 245.83 109.53 231.04 109.53 218.77 143.25 240.14 145.19 236.29 109.53 213.69 109.53 153.65 114.47 156.05 125.07 176.65 113.16 198.52 115.92 200.42 126.91 180.23 129.99 186.21 123.15 198.67 125.91 200.57 131.83 189.79 134.47 194.92 131.15 200.97 133.91 202.87 136.31 198.5 140.65 206.93 142.19 205.93 142.19 205.93 142.55 205.7 142.6 205.66 142.6 205.66 144.14 204.66 139.81 196.23 144.38 196.09 144.29 192.45 137.96 192.65 135.33 187.53 146.6 187.17 146.51 183.53 133.48 183.95 130.41 177.97 151.48 177.38 151.4 173.75 128.56 174.39 117.96 153.79 118.58 147.79 164.92 177.81 164.53 223.76 168.47 223.8 168.84 180.35 178.31 186.48 178.05 216.56 181.99 216.61 182.23 189.02 188.92 193.36 188.78 210.1 192.72 210.14 192.84 195.9 198.68 199.68 198.62 207.39 202.56 207.43 202.6 202.22 211.67 208.09 213.03 205.46 213.03 205.46 214.14 203.31"/>
  </g>
</svg>